<svg width="225" height="225" viewBox="0 0 225 225" fill="none" xmlns="http://www.w3.org/2000/svg">
<path d="M196.039 115.716C203.506 111.087 205.877 105.412 203.002 98.9159C202.126 97.1133 200.835 95.5441 199.236 94.337C197.636 93.1299 195.773 92.3194 193.799 91.9719C190.477 91.2625 183.813 91.0759 176.701 97.5719C169.085 104.572 167.367 112.655 171.661 121.577C174.778 128.092 175.823 133.953 174.386 136.847C173.897 137.642 173.228 138.313 172.435 138.806C171.641 139.298 170.743 139.599 169.813 139.684C158.781 142.036 150.213 129.548 149.279 128.26L148.439 126.393C142.839 113.327 146.573 106.383 148.439 103.993C150.549 101.231 168.973 92.4945 176.047 89.1905L176.29 89.0785C179.799 87.4172 182.823 85.9985 184.839 84.9532L186.183 84.2812C192.194 81.2199 200.445 77.0199 198.055 66.3985C198.021 66.0791 197.946 65.7654 197.831 65.4652C197.321 63.5881 196.62 61.768 195.741 60.0332C195.027 58.5529 194.095 57.1877 192.978 55.9825L192.829 55.8332C184.447 47.1905 171.231 53.1079 160.591 57.8865C159.135 58.5399 157.717 59.1745 156.335 59.7532C148.771 62.7331 141.058 65.3188 133.226 67.4999C133.118 65.6619 132.843 63.8375 132.405 62.0492C132.189 61.266 131.793 60.5441 131.248 59.9412C130.704 59.3384 130.026 58.8713 129.269 58.5772C127.104 57.7725 125.067 56.6597 123.221 55.2732C123.221 54.9372 123.071 54.5826 122.978 54.1905V53.9105C122.81 53.1452 122.605 52.1745 122.325 51.1105C123.85 50.9006 125.266 50.2011 126.361 49.1172C127.455 48.0333 128.167 46.6235 128.391 45.0999C128.715 43.7439 128.727 42.3323 128.426 40.9712C128.125 39.61 127.52 38.3347 126.655 37.2412C125.929 36.4173 125.027 35.7667 124.016 35.337C123.004 34.9074 121.91 34.7097 120.813 34.7585C118.234 34.8854 115.766 35.8413 113.775 37.4839C112.409 36.2415 110.969 35.0821 109.463 34.0119C108.051 31.237 106.19 28.7142 103.957 26.5452C101.311 24.0331 98.1092 22.1824 94.6119 21.1442C91.1147 20.1061 87.4214 19.91 83.8339 20.5719C80.3619 21.2252 78.2339 22.5505 77.2446 24.6225C76.8339 25.5185 76.0312 28.2065 75.3779 30.5025C73.5112 30.5025 71.2339 30.5025 68.6392 30.8012C63.0389 31.2617 57.7151 33.4315 53.3886 37.0172C52.7841 37.5581 52.3154 38.2337 52.0203 38.9892C51.7252 39.7448 51.6121 40.5592 51.6899 41.3665C50.9071 41.9699 50.1822 42.6448 49.5246 43.3825C48.3299 42.9159 47.0606 42.4679 45.7912 42.0572C42.7107 41.049 39.4323 40.7991 36.2346 41.3288C33.0368 41.8585 30.0141 43.1522 27.4232 45.0999C20.3672 50.8492 26.9939 60.6679 30.1672 65.3905C31.9068 67.7775 34.018 69.8699 36.4206 71.5879C36.4206 72.4652 36.4206 73.4545 36.4206 74.8172C36.4206 76.6839 36.5512 78.4199 36.6072 79.8759C29.1406 86.3905 28.5806 87.4919 28.2632 89.2092C28.0571 90.6898 28.1652 92.1972 28.5806 93.6332C28.8792 95.0705 29.5699 98.3559 32.6872 99.3639L33.6952 101.231C32.7189 102.892 32.1795 104.774 32.1272 106.7C32.1756 110.049 32.9977 113.342 34.5293 116.321C36.061 119.3 38.2607 121.885 40.9566 123.873C43.5268 125.666 46.4483 126.892 49.5278 127.471C52.6073 128.05 55.7747 127.969 58.8206 127.233C58.8206 128.969 58.8206 131.34 58.8206 134.215C57.5122 136.473 55.953 138.577 54.1726 140.487C49.7112 145.788 44.1486 152.396 42.9726 160.404C41.6099 170.017 46.8552 180.62 50.4392 186.537C50.1779 186.836 49.8979 187.153 49.6179 187.508C46.5006 191.409 46.9486 196.692 47.1539 199.231C47.5272 203.375 50.5139 205.484 56.0766 205.484H58.6152H60.0339C61.3966 205.484 62.9646 205.335 64.7379 205.297C70.0702 205.389 75.3827 204.626 80.4739 203.039C87.1192 200.761 86.0739 194.303 85.3459 189.113C84.9297 185.629 83.6461 182.304 81.6126 179.444L81.4819 179.276C83.2366 177.409 88.0339 174.385 97.0872 171.809C99.8312 171.007 102.575 170.297 105.245 169.737C106.365 170.073 113.869 172.313 126.039 176.345C138.21 180.377 142.839 184.055 145.49 187.116C145.957 187.639 146.013 187.975 145.919 189.879C145.722 191.9 145.945 193.939 146.573 195.871C148.029 199.921 153.349 201.657 164.362 201.657C164.997 201.657 165.631 201.657 166.098 201.657H167.442H167.722C169.738 201.657 171.773 201.471 173.621 201.321C173.943 201.353 174.268 201.353 174.591 201.321C176.075 201.243 177.545 201.005 178.978 200.612C180.308 200.168 181.482 199.348 182.356 198.252C183.231 197.155 183.769 195.829 183.906 194.433C184.206 192.119 183.946 189.766 183.147 187.573C182.348 185.38 181.033 183.412 179.314 181.833C178.193 180.946 177.233 179.873 176.477 178.66L176.365 178.511C175.805 177.745 175.095 176.775 174.106 175.487C173.117 174.199 171.007 170.577 168.17 165.425C175.075 165.753 181.901 163.848 187.639 159.993C202.853 149.969 199.437 130.481 195.498 121.577C193.575 117.247 194.191 116.873 196.039 115.716Z" fill="white"/>
<path d="M193.613 111.852C199.213 108.399 200.725 105.076 198.802 100.652C198.206 99.5212 197.357 98.5437 196.321 97.7957C195.284 97.0477 194.089 96.5494 192.829 96.3399C190.365 95.8172 185.362 95.7239 179.762 100.876C171.698 108.343 173.621 115.081 175.749 119.543C177.877 124.004 181.349 132.964 178.455 138.788C177.671 140.205 176.564 141.418 175.225 142.329C173.886 143.24 172.352 143.824 170.746 144.033C155.813 147.188 145.639 130.873 145.266 130.239C144.893 129.604 144.575 128.689 144.277 127.999C137.855 112.729 142.503 104.087 144.799 101.063C147.581 97.3292 163.466 89.8625 173.957 84.9905C177.578 83.2732 180.733 81.7985 182.749 80.7532L184.093 80.0625C190.215 76.9452 195.293 74.3692 193.538 66.9959C193.566 66.8919 193.566 66.7825 193.538 66.6786C193.091 65.0108 192.465 63.3961 191.671 61.8625C191.139 60.7702 190.447 59.7635 189.618 58.8759C183.458 52.5479 171.978 57.6812 162.551 61.8999L158.221 63.7665C148.505 67.5507 138.591 70.8035 128.522 73.5106C129.033 70.0673 128.888 66.5583 128.093 63.1692C128.065 63.0723 128.015 62.983 127.947 62.9085C127.879 62.8341 127.795 62.7763 127.701 62.7399C125.367 61.8999 119.525 59.2492 118.909 56.9345C118.741 56.3185 118.591 55.6092 118.423 54.8625C117.984 52.3448 117.212 49.8966 116.127 47.5825C115.083 46.5158 114.22 45.2864 113.57 43.9425C113.562 43.8744 113.562 43.8054 113.57 43.7372C111.41 41.317 108.966 39.1672 106.29 37.3345C106.207 37.279 106.11 37.2467 106.01 37.2412C104.744 34.4925 102.992 31.9947 100.839 29.8679C98.7124 27.8648 96.1452 26.3889 93.344 25.5589C90.5428 24.7289 87.5859 24.5681 84.7112 25.0892C83.8526 25.2572 81.8179 25.7239 81.4259 26.5825C81.0339 27.4412 79.9699 30.9505 78.7939 35.4679C78.7939 35.4679 78.7939 35.4679 78.7006 35.4679C78.6072 35.4679 76.5166 34.7959 69.0499 35.4679C64.4449 35.8592 60.0627 37.6212 56.4686 40.5265C56.3962 40.5958 56.3401 40.6803 56.3046 40.774C56.2691 40.8676 56.2549 40.9681 56.2632 41.0679C56.2706 41.1691 56.3035 41.2667 56.3591 41.3516C56.4146 41.4366 56.4908 41.5059 56.5806 41.5532L58.5779 42.7105C57.2491 43.2604 55.9948 43.9754 54.8446 44.8385C53.2375 45.9475 51.9758 47.4874 51.2046 49.2812C48.9853 48.2041 46.6893 47.2932 44.3352 46.5559C41.9803 45.7898 39.4775 45.5917 37.0314 45.9777C34.5852 46.3638 32.2651 47.3231 30.2606 48.7772C26.5272 51.8572 31.6979 59.6225 33.9939 62.9265C35.9467 65.4631 38.3361 67.6312 41.0499 69.3292C41.0499 70.0385 41.0499 71.7372 41.0499 74.7799C41.0499 77.8226 41.2552 80.3799 41.3486 81.9665C35.7486 86.6892 32.9486 89.4332 32.7992 90.1425C32.6499 90.8519 33.0792 94.9959 34.2366 95.2199C34.6708 95.2677 35.109 95.2677 35.5432 95.2199L39.0526 101.548C37.7174 102.96 36.8786 104.769 36.6632 106.7C36.6993 109.325 37.3455 111.906 38.5507 114.239C39.7558 116.571 41.4869 118.591 43.6072 120.14C46.9299 122.548 52.7352 124.769 61.6206 121.783C61.7 121.737 61.7901 121.713 61.8819 121.713C61.9736 121.713 62.0638 121.737 62.1432 121.783C63.6739 122.921 63.4499 130.444 63.3379 134.476C63.3379 136.716 60.6499 139.815 57.6259 143.399C53.5379 148.271 48.4419 154.319 47.4899 161.02C46.0152 171.567 54.3592 184.372 56.2259 187.153C55.0997 188.11 54.0682 189.172 53.1459 190.327C51.1486 192.809 51.4846 196.729 51.6712 198.82C51.8206 200.519 53.2392 200.911 56.0206 200.911C57.0659 200.911 58.3166 200.911 59.7539 200.799C61.1912 200.687 62.7592 200.649 64.5699 200.612C69.4367 200.692 74.2863 200.012 78.9432 198.596C81.7246 197.644 81.6499 195.516 80.8099 189.673C80.5045 186.858 79.4614 184.173 77.7859 181.889C77.3028 181.197 76.8663 180.474 76.4792 179.724C76.377 179.465 76.334 179.186 76.3534 178.909C76.3727 178.631 76.454 178.361 76.5912 178.119C77.9352 175.095 84.3752 170.652 95.7619 167.217C99.4952 166.116 102.967 165.351 105.935 164.735C105.967 164.823 106.018 164.903 106.087 164.968C106.155 165.033 106.237 165.081 106.327 165.108C106.327 165.108 114.074 167.404 127.439 171.809C140.805 176.215 145.714 180.377 148.85 183.868C149.531 184.697 150.025 185.663 150.299 186.7C150.572 187.737 150.619 188.821 150.437 189.879C150.282 191.309 150.415 192.756 150.829 194.135C151.594 196.244 158.053 196.879 164.474 196.879H166.621C169.159 196.879 171.586 196.692 173.527 196.505H173.714C174.97 196.418 176.218 196.237 177.447 195.964C177.941 195.792 178.376 195.486 178.706 195.081C179.036 194.675 179.246 194.186 179.314 193.668C179.449 192.153 179.242 190.627 178.709 189.202C178.176 187.777 177.33 186.49 176.234 185.436C174.864 184.277 173.691 182.902 172.762 181.367C172.202 180.601 171.474 179.612 170.447 178.249C166.496 172.068 162.863 165.688 159.565 159.135C162.776 160.344 166.176 160.976 169.607 161.001C175.13 160.992 180.525 159.335 185.101 156.241C197.757 147.897 194.695 131.153 191.298 123.463C189.058 118.404 188.722 114.876 193.613 111.852Z" fill="#F3BD48"/>
<path d="M114.167 163.036C114.167 163.036 139.405 173.265 149.877 172.201C160.349 171.137 157.642 159.527 157.642 159.527L159.173 160.516C159.173 160.516 168.655 177.932 170.877 180.396C172.477 182.385 173.738 184.623 174.61 187.023L160.33 190.943L154.319 189.076C154.319 189.076 148.122 181.049 145.639 179.351C138.154 174.899 130.147 171.388 121.802 168.897C116.753 167.691 111.809 166.08 107.018 164.081L114.167 163.036Z" fill="#CE7A23"/>
<path d="M79.2979 112.3C79.2979 112.3 75.6952 111.964 75.8632 121.745C76.0312 131.527 75.0979 152.097 91.5432 153.721C107.989 155.345 124.938 154.58 129.362 143.772C133.786 132.964 124.77 98.4679 118.461 98.3746C112.151 98.2812 99.7939 105.524 93.3352 108.417C88.8457 110.319 84.1265 111.624 79.2979 112.3Z" fill="white"/>
<path d="M137.146 71.8866L132.517 73.3239L127.906 74.6119C127.906 74.6119 127.29 76.1052 126.301 78.1026C126.998 76.0905 127.462 74.0048 127.682 71.8866C127.829 69.0742 127.641 66.2544 127.122 63.4866C127.122 63.4866 123.015 61.6199 121.522 60.7239C120.029 59.8279 117.789 57.6252 117.789 56.0946C117.116 53.2078 116.23 50.3751 115.138 47.6199L110.191 55.9826C110.873 56.8387 111.346 57.8422 111.573 58.9132C111.63 59.6463 111.63 60.3828 111.573 61.1159C113.91 61.6179 116.192 62.3495 118.386 63.2999C120.048 63.8078 121.626 64.5561 123.071 65.5212C123.071 65.5212 123.762 73.8092 120.01 79.8759C116.258 85.9426 108.418 90.0492 108.418 90.0492C108.227 88.8923 107.828 87.7793 107.242 86.7639C106.887 86.07 106.42 85.4393 105.861 84.8972C105.753 87.2042 104.834 89.399 103.266 91.0946C101.41 92.6147 99.3244 93.8307 97.0872 94.6972C97.0872 94.6972 93.7272 99.4199 92.1032 99.7932C92.1032 99.7932 93.2792 99.8866 93.3912 102.444C93.3963 104.32 93.2465 106.193 92.9432 108.044C90.9716 109.236 88.7933 110.047 86.5219 110.433C81.8247 110.955 77.095 111.124 72.3726 110.937C72.3726 110.937 86.6899 103.993 87.1939 101.828C87.6979 99.6626 88.2392 92.4945 88.2392 92.4945L78.9059 91.0946C78.9059 91.0946 69.5726 95.4439 59.6979 101.417C49.8232 107.391 46.9672 111.553 48.0499 115.679C49.1326 119.804 55.6286 120.569 58.5779 120.495C61.5272 120.42 63.5059 120.495 63.5992 122.361C63.6926 124.228 64.4952 133.879 64.3646 134.383C64.2339 134.887 63.9912 135.745 63.9912 135.745C63.9912 135.745 80.9779 117.769 97.3672 109.183C113.757 100.596 122.194 95.9479 125.013 92.7185C127.831 89.4892 134.85 84.0946 136.549 78.4572C138.247 72.8199 137.146 71.8866 137.146 71.8866Z" fill="#CE7A23"/>
<path d="M79.2046 107.447C79.2046 107.447 78.8686 110.284 80.4926 110.863C82.1166 111.441 79.1673 114.596 79.1673 114.596L68.2473 109.183L73.3806 104.497L79.2046 107.447Z" fill="#CE7A23"/>
<path d="M150.829 191.671C150.846 192.582 151.017 193.485 151.333 194.34H151.519C152.445 194.784 153.445 195.056 154.469 195.143C155.402 195.292 156.335 195.441 157.269 195.535C159.135 195.703 161.189 195.535 163.167 195.684C165.262 195.824 167.363 195.824 169.458 195.684C170.466 195.684 171.455 195.516 172.445 195.385C173.371 195.146 174.325 195.027 175.282 195.031C175.387 195.042 175.485 195.088 175.562 195.161C176.477 195.031 177.914 195.161 178.455 194.284C179.015 192.94 179.055 191.437 178.567 190.065C177.727 186.911 175.394 184.764 173.117 182.599C173.037 182.541 172.983 182.453 172.967 182.356C171.381 181.777 169.533 181.292 168.618 181.833C166.975 182.785 167.778 185.716 167.778 185.716C167.778 185.716 164.679 182.113 163.018 182.748C161.357 183.383 161.655 186.836 161.655 186.836C161.655 186.836 159.471 182.375 157.717 183.103C155.962 183.831 156.634 187.433 156.634 187.433C156.634 187.433 153.685 182.561 151.93 183.233C151.537 183.398 151.189 183.652 150.913 183.977C150.638 184.301 150.442 184.686 150.343 185.1C150.793 187.259 150.957 189.469 150.829 191.671Z" fill="white"/>
<path d="M72.8206 113.028H70.4312C70.0087 113.018 69.6071 112.842 69.3136 112.538C69.02 112.234 68.8582 111.826 68.8632 111.404C68.873 110.986 69.0471 110.589 69.3476 110.299C69.6482 110.009 70.0509 109.85 70.4686 109.855C70.5806 109.855 82.6019 110.004 86.4846 109.127C92.4952 107.745 98.8046 101.996 103.434 97.7959C105.382 95.8479 107.527 94.1087 109.837 92.6065C113.981 90.4225 122.903 83.0305 125.255 76.6839C126.542 72.7501 126.78 68.5485 125.946 64.4945C123.501 63.4679 117.583 60.7612 116.725 57.4199C116.538 56.7665 116.389 56.0199 116.221 55.2359C115.714 51.8005 114.368 48.5433 112.301 45.7532C110.121 43.2134 107.609 40.9783 104.834 39.1079C104.659 38.9853 104.509 38.8294 104.394 38.6491C104.279 38.4688 104.201 38.2676 104.164 38.057C104.126 37.8464 104.131 37.6305 104.177 37.4217C104.223 37.2129 104.31 37.0152 104.433 36.8399C104.555 36.6646 104.711 36.5152 104.891 36.4002C105.072 36.2851 105.273 36.2068 105.483 36.1695C105.694 36.1322 105.91 36.1368 106.119 36.183C106.328 36.2291 106.525 36.316 106.701 36.4386C109.712 38.5021 112.436 40.9564 114.802 43.7372C117.181 46.9162 118.734 50.6365 119.319 54.5639C119.469 55.3105 119.618 56.0012 119.786 56.6172C120.159 58.0172 124.285 60.3505 127.887 61.8625C128.123 61.9481 128.335 62.0896 128.504 62.2749C128.673 62.4602 128.794 62.6839 128.858 62.9265C130.046 67.8647 129.833 73.0364 128.242 77.8599C125.61 84.9905 116.034 92.9799 111.349 95.4999C109.271 96.8743 107.338 98.4567 105.581 100.223C100.709 104.665 94.0259 110.732 87.2126 112.281C82.4427 112.912 77.6301 113.162 72.8206 113.028Z" fill="black"/>
<path d="M151.015 144.313C151.267 147.015 150.79 149.736 149.634 152.191C147.767 155.924 144.743 155.644 144.631 157.137C144.519 158.631 147.17 160.068 151.445 158.071C155.719 156.073 156.093 153.964 156.093 153.964L151.015 144.313Z" fill="#CE7A23"/>
<path d="M156.802 155.047C156.991 157.611 156.189 160.149 154.562 162.14C151.855 165.313 150.026 164.492 149.298 166.247C148.85 167.311 148.701 168.431 153.554 168.113C156.553 167.91 159.401 166.722 161.655 164.735L156.802 155.047Z" fill="#CE7A23"/>
<path d="M179.967 76.0865C179.967 76.0865 147.002 91.5799 140.599 98.8786C134.197 106.177 136.343 115.305 137.967 119.897C139.591 124.489 144.109 131.881 144.445 130.313C144.781 128.745 138.079 120.233 140.711 108.94C143.343 97.6466 153.778 94.1932 155.869 93.1106C157.959 92.0279 184.205 79.2786 184.205 79.2786C184.205 79.2786 186.071 74.3879 185.063 74.2199C183.281 74.5831 181.563 75.2124 179.967 76.0865Z" fill="#CE7A23"/>
<path d="M155.701 65.5212C156.555 65.8704 157.319 66.41 157.934 67.099C158.548 67.7881 158.998 68.6083 159.247 69.4972C160.05 72.4839 160.647 78.5879 157.978 78.9612C155.309 79.3346 156.765 75.0972 154.077 72.1106C152.586 70.3851 150.764 68.976 148.719 67.9666L155.458 65.5212" fill="#CE7A23"/>
<path d="M147.245 136.119C147.476 137.128 147.487 138.176 147.278 139.191C147.068 140.205 146.643 141.163 146.031 141.999C143.941 144.407 144.277 146.385 144.967 146.647C147.823 147.692 150.754 143.38 149.97 141.831C149.447 140.767 147.245 136.119 147.245 136.119Z" fill="#CE7A23"/>
<path d="M181.517 80.3052C183.906 78.9985 186.501 78.1399 188.853 76.7585C189.993 76.1454 191.016 75.3366 191.877 74.3692C192.667 73.5267 193.147 72.4406 193.239 71.2892C193.407 69.9536 193.37 68.6001 193.127 67.2759C192.92 66.0378 192.55 64.8327 192.026 63.6919C191.221 61.7076 189.991 59.9237 188.423 58.4652C186.776 57.2187 184.758 56.5613 182.693 56.5985C180.353 56.6411 178.028 56.967 175.767 57.5692C174.479 57.8305 173.229 58.1852 172.034 58.5585C170.996 58.7372 170.009 59.1384 169.141 59.7345C169.041 59.8179 168.916 59.8641 168.786 59.8652V60.2012C169.08 61.0585 169.643 61.7982 170.391 62.3105C171.682 62.7128 173.042 62.8462 174.386 62.7025C174.386 62.7025 171.511 64.7932 172.034 66.1185C172.557 67.4439 176.719 66.9212 176.719 66.9212C176.719 66.9212 173.191 69.8705 174.349 71.5132C175.506 73.1559 179.949 71.7745 179.949 71.7745C179.949 71.7745 175.599 74.9479 177.41 76.7212C177.993 77.2283 178.719 77.542 179.488 77.6189C180.257 77.6958 181.031 77.5322 181.703 77.1505C181.703 77.1505 180.733 79.3345 181.517 80.3052Z" fill="white"/>
<path d="M137.146 71.8865C138.488 72.4062 139.692 73.2292 140.664 74.2914C141.635 75.3535 142.348 76.6259 142.746 78.0092C143.717 82.4145 142.149 86.6892 144.986 87.0999C147.823 87.5105 150.007 82.6945 148.925 76.5345C147.842 70.3745 145.509 69.2359 145.509 69.2359L137.146 71.8865Z" fill="#CE7A23"/>
<path d="M166.751 60.7239C167.744 61.1791 168.626 61.8434 169.338 62.6715C170.051 63.4995 170.575 64.4716 170.877 65.5212C171.381 68.6572 171.25 73.5479 168.543 73.6972C165.837 73.8466 167.517 70.6359 164.679 67.9292C162.664 66.1896 160.233 65.0001 157.623 64.4759L166.751 60.7239Z" fill="#CE7A23"/>
<path d="M75.8632 83.0492C75.29 83.0645 74.729 83.2185 74.2283 83.4981C73.7277 83.7777 73.3023 84.1745 72.9886 84.6545C71.6446 86.4092 73.1379 89.1532 71.5512 89.6945C69.9646 90.2359 67.0712 87.1932 67.8179 84.4305C68.5646 81.6679 76.4606 80.9585 76.4606 80.9585L75.8632 83.0492Z" fill="#CE7A23"/>
<path d="M173.546 197.327H173.154C172.757 197.225 172.416 196.974 172.2 196.626C171.984 196.278 171.912 195.86 171.997 195.46C171.997 195.46 173.042 190.812 170.877 189.449C170.679 189.351 170.504 189.213 170.363 189.043C170.222 188.873 170.118 188.676 170.058 188.464C169.997 188.252 169.982 188.029 170.012 187.811C170.042 187.592 170.118 187.382 170.234 187.195C170.35 187.007 170.504 186.845 170.686 186.721C170.867 186.596 171.073 186.51 171.29 186.469C171.507 186.429 171.73 186.434 171.945 186.484C172.16 186.534 172.362 186.629 172.538 186.761C176.701 189.356 175.151 195.927 175.077 196.207C174.979 196.535 174.776 196.822 174.5 197.024C174.223 197.226 173.888 197.333 173.546 197.327Z" fill="black"/>
<path d="M75.8632 80.8652C75.8632 80.8652 74.7246 82.7319 75.4899 83.6279C76.2552 84.5239 78.9432 84.6359 78.9432 84.6359C78.9432 84.6359 75.5832 86.1665 76.1992 88.0332C76.8152 89.8999 80.5112 89.6012 80.5112 89.6012C80.5112 89.6012 76.7779 90.8332 77.4499 92.8492C78.1219 94.8652 82.0046 93.8012 82.0046 93.8012C82.0046 93.8012 78.7006 95.9292 79.5592 98.1692C80.4179 100.409 84.6366 98.1692 84.6366 98.1692C84.6366 98.1692 82.9939 101.231 83.6099 102.892C84.2259 104.553 84.8232 104.516 84.8232 104.516C84.8232 104.516 97.0872 97.7025 99.2526 90.2172C101.418 82.7319 99.2526 78.8492 94.5672 77.9159C89.8819 76.9826 75.8632 80.8652 75.8632 80.8652Z" fill="white"/>
<path d="M77.3753 175.244C77.3753 175.244 75.9379 174.087 73.9966 176.252C72.0553 178.417 71.9433 183.719 72.1299 186.033C72.3166 188.348 75.6393 190.177 75.7699 190.177C75.9006 190.177 78.0099 186.575 78.0099 186.575C77.798 185.262 77.4987 183.965 77.1139 182.692C76.8339 182.076 74.5753 178.007 77.3753 175.244Z" fill="#CE7A23"/>
<path d="M78.4952 198.503C78.8406 198.425 79.1664 198.278 79.4523 198.069C79.7381 197.86 79.9779 197.595 80.1566 197.289C80.3875 196.687 80.5503 196.061 80.6419 195.423C80.8473 193.88 80.8473 192.317 80.6419 190.775C80.5694 189.796 80.4006 188.827 80.1379 187.881C79.9886 187.433 79.8392 186.985 79.6526 186.537C79.1505 184.869 78.4419 183.27 77.5432 181.777C74.7619 183.103 75.3219 187.956 75.3219 187.956C75.3219 187.956 73.9219 181.927 71.0472 183.177C68.1726 184.428 69.3486 188.273 69.3486 188.273C69.3486 188.273 67.1086 182.673 64.5886 183.215C62.0686 183.756 63.0579 188.703 63.0579 188.703C63.0579 188.703 61.5646 183.812 59.0259 183.812C58.4243 183.877 57.8456 184.079 57.3343 184.402C56.823 184.726 56.3927 185.163 56.0766 185.679C56.3611 185.921 56.5509 186.256 56.6124 186.625C56.6739 186.994 56.6031 187.373 56.4126 187.695C55.8167 188.415 55.1186 189.043 54.3406 189.561C53.4929 190.244 52.8048 191.104 52.3246 192.081C51.9397 193.17 51.7748 194.325 51.8392 195.479C51.8392 197.345 51.5592 199.735 53.9112 200.183C55.8364 200.425 57.7806 200.482 59.7166 200.351C62.0133 200.31 64.3063 200.148 66.5859 199.865C68.7699 199.604 70.9912 199.641 73.2126 199.455C74.8281 199.326 76.4317 199.076 78.0099 198.708L78.4952 198.503Z" fill="white"/>
<path d="M42.1512 99.7932C41.7605 100.568 41.5309 101.414 41.4763 102.281C41.4218 103.147 41.5434 104.015 41.8339 104.833C42.9539 106.887 45.7539 105.505 45.8472 107.26C45.9406 109.015 44.6152 109.948 41.1806 109.687C37.7459 109.425 37.4472 109.108 37.4472 109.108C37.4472 109.108 35.7672 103.527 42.1512 99.7932Z" fill="#CE7A23"/>
<path d="M53.8366 149.335C53.7981 150.585 54.1325 151.82 54.7973 152.88C55.4621 153.94 56.4272 154.779 57.5699 155.289C61.8072 157.585 64.5512 156.82 64.2152 159.209C63.8792 161.599 58.8766 162.028 55.0686 160.777C52.8762 160.109 50.9287 158.811 49.4686 157.044C49.4686 157.044 52.5672 150.193 53.8366 149.335Z" fill="#CE7A23"/>
<path d="M61.3032 140.412C61.3032 140.412 60.4632 142.017 62.4792 144.967C64.4952 147.916 65.4286 147.599 64.6632 149.055C63.8979 150.511 56.4312 148.364 56.6179 145.993C56.8046 143.623 61.3032 140.412 61.3032 140.412Z" fill="#CE7A23"/>
<path d="M166.434 197.7H165.967C165.767 197.64 165.581 197.541 165.419 197.409C165.258 197.278 165.124 197.115 165.025 196.931C164.926 196.748 164.864 196.546 164.843 196.338C164.823 196.131 164.843 195.921 164.903 195.721C165.277 194.489 165.818 190.887 164.026 189.225C163.73 188.928 163.563 188.525 163.563 188.105C163.563 187.685 163.73 187.283 164.026 186.985C164.326 186.688 164.732 186.521 165.155 186.521C165.578 186.521 165.984 186.688 166.285 186.985C169.85 190.327 168.151 196.449 168.021 196.711C167.897 197.024 167.677 197.289 167.391 197.468C167.105 197.646 166.77 197.727 166.434 197.7Z" fill="black"/>
<path d="M175.45 108.567C175.45 108.567 175.805 109.239 177.485 108.212C179.165 107.185 179.799 105.916 182.095 104.609C183.336 103.861 184.713 103.366 186.146 103.153C184.686 104.346 183.426 105.764 182.413 107.353C181.479 109.22 181.125 110.807 181.666 111.348C182.207 111.889 185.119 109.481 187.266 108.417C188.462 107.761 189.711 107.206 190.999 106.756C189.895 108.154 189.042 109.733 188.479 111.423C188.398 113.058 188.685 114.691 189.319 116.201C189.98 114.181 191.345 112.465 193.165 111.367C196.021 109.873 198.578 107.335 198.895 105.207C199.213 103.079 199.698 99.6065 194.938 97.7399C190.178 95.8732 181.125 96.3399 175.45 108.567Z" fill="white"/>
<path d="M108.567 52.5665C108.567 52.5665 108.045 50.6999 107.223 50.6999C106.402 50.6999 106.047 53.7612 104.946 53.2945C103.845 52.8279 103.901 51.9692 103.658 50.5692C103.507 49.7459 103.275 48.9394 102.967 48.1612C102.796 49.2537 102.469 50.3161 101.997 51.3159C101.474 52.0252 100.13 52.1559 100.13 50.6625C100.13 49.1692 99.3272 43.9425 95.6872 41.3292C92.0472 38.7159 87.0632 38.2492 86.7459 38.7159C86.1528 40.7348 85.7405 42.8025 85.5139 44.8945C85.5139 45.9025 85.5139 48.1799 85.5139 48.1799C85.5139 48.1799 84.5246 48.6465 84.0019 47.9745C83.4792 47.3025 83.5539 46.3505 83.2366 46.7052C82.9192 47.0599 83.5166 49.7665 81.5939 49.4679C79.6712 49.1692 80.5486 45.7345 79.3352 45.7345C78.668 45.7288 78.0155 45.931 77.4686 46.3132C77.4686 46.3132 78.8126 38.8465 80.4739 33.2465C82.1352 27.6465 81.0152 26.4892 83.2926 25.9665C85.5699 25.4439 95.5006 24.6599 101.511 31.7719C107.522 38.8839 106.701 38.9212 106.701 38.9212C106.701 38.9212 110.098 41.6092 111.722 43.0465C113.346 44.4839 113.346 45.1185 113.346 45.1185C111.899 47.692 110.304 50.1789 108.567 52.5665Z" fill="#CE7A23"/>
<path d="M170.167 160.012C170.766 157.954 170.667 155.755 169.887 153.759C168.757 150.639 167.032 147.767 164.81 145.303C161.962 144.803 159.206 143.878 156.634 142.559C153.265 140.02 150.06 137.271 147.039 134.327C148.775 138.591 150.737 142.76 152.919 146.815C155.066 150.212 158.295 157.623 158.519 157.679C158.743 157.735 166.117 161.823 170.167 160.012Z" fill="#CE7A23"/>
<path d="M167.106 145.284C167.106 145.284 171.866 146.105 173.397 149.708C174.927 153.311 174.33 156.783 175.767 156.913C177.205 157.044 180.135 155.7 179.762 149.335C179.389 142.969 176.719 142.409 176.719 142.409C176.719 142.409 169.029 145.564 167.106 145.284Z" fill="#CE7A23"/>
<path d="M178.679 140.3C180.44 139.659 182.37 139.659 184.13 140.3C187.434 141.271 186.855 144.425 188.965 143.791C191.074 143.156 191.037 136.324 187.266 133.916C186.262 133.218 185.13 132.726 183.935 132.47C182.739 132.214 181.505 132.197 180.303 132.423L178.679 140.3Z" fill="#CE7A23"/>
<path d="M179.183 126.281C179.183 126.281 179.538 125.087 182.917 125.18C186.295 125.273 186.202 128.372 187.901 128.017C189.599 127.663 189.151 120.551 184.391 119.057C183.205 118.55 181.907 118.359 180.624 118.503C179.342 118.647 178.119 119.121 177.074 119.879L179.183 126.281Z" fill="#CE7A23"/>
<path d="M169.551 161.879C165.369 161.902 161.232 161.004 157.437 159.247C157.25 159.152 157.083 159.021 156.947 158.861C156.811 158.702 156.708 158.517 156.644 158.317C156.579 158.118 156.555 157.907 156.573 157.698C156.59 157.489 156.649 157.286 156.746 157.1C156.84 156.903 156.974 156.727 157.139 156.585C157.305 156.442 157.499 156.336 157.708 156.272C157.917 156.209 158.137 156.19 158.354 156.217C158.571 156.244 158.78 156.316 158.967 156.428C162.956 158.209 167.331 158.948 171.683 158.576C176.035 158.203 180.222 156.732 183.85 154.3C198.13 144.967 189.338 124.433 189.245 124.284C187.117 119.449 185.81 113.943 192.418 109.873C197.682 106.607 198.018 104.273 196.73 101.473C196.276 100.673 195.647 99.9863 194.891 99.4628C194.135 98.9393 193.27 98.5928 192.362 98.4492C190.309 98.0012 186.127 97.9452 181.162 102.444C174.311 108.735 175.562 114.111 177.653 118.535C180.061 123.593 183.626 133.057 180.341 139.721C179.422 141.454 178.105 142.945 176.499 144.071C174.893 145.196 173.043 145.926 171.101 146.199C154.506 149.727 143.679 132.105 143.231 131.265C143.129 131.083 143.063 130.882 143.039 130.674C143.015 130.466 143.031 130.256 143.089 130.054C143.146 129.853 143.242 129.665 143.373 129.501C143.503 129.338 143.664 129.201 143.847 129.1C144.21 128.886 144.641 128.823 145.05 128.924C145.458 129.025 145.811 129.283 146.031 129.641C146.125 129.809 156.149 146.068 170.522 143.025C171.996 142.862 173.41 142.351 174.646 141.533C175.883 140.715 176.907 139.614 177.634 138.321C179.501 134.327 178.605 127.607 174.927 119.897C172.65 115.156 170.615 107.932 179.146 100.092C185.063 94.6599 190.346 94.7719 193.071 95.3319C194.477 95.5758 195.808 96.1427 196.958 96.9881C198.108 97.8336 199.046 98.9344 199.698 100.204C202.423 106.439 198.149 110.079 194.098 112.561C190.047 115.044 189.749 117.508 192.231 122.996C195.741 130.929 198.877 148.252 185.698 156.951C180.93 160.171 175.305 161.888 169.551 161.879Z" fill="black"/>
<path d="M181.031 63.8972C180.809 63.9007 180.589 63.8557 180.386 63.7655C180.183 63.6752 180.002 63.5418 179.855 63.3746C179.713 63.2212 179.603 63.0411 179.532 62.8447C179.461 62.6483 179.429 62.4397 179.44 62.231C179.45 62.0223 179.502 61.8178 179.593 61.6295C179.683 61.4412 179.811 61.2729 179.967 61.1345C185.269 56.3185 189.301 57.6439 189.637 57.8119C189.833 57.8842 190.013 57.9944 190.166 58.1363C190.32 58.2781 190.444 58.4488 190.531 58.6386C190.619 58.8285 190.668 59.0336 190.676 59.2425C190.685 59.4513 190.652 59.6598 190.579 59.8559C190.507 60.052 190.397 60.2319 190.255 60.3854C190.113 60.5389 189.942 60.663 189.752 60.7505C189.563 60.8381 189.357 60.8874 189.149 60.8956C188.94 60.9038 188.731 60.8709 188.535 60.7985C188.367 60.7985 185.885 60.0519 182.095 63.4865C181.804 63.7506 181.425 63.8969 181.031 63.8972Z" fill="black"/>
<path d="M185.791 69.5159C185.487 69.5142 185.191 69.4254 184.936 69.26C184.681 69.0945 184.479 68.8594 184.354 68.5826C184.265 68.3963 184.215 68.1944 184.204 67.9885C184.194 67.7825 184.224 67.5765 184.294 67.3823C184.363 67.1881 184.47 67.0095 184.608 66.8567C184.747 66.7039 184.914 66.5799 185.101 66.4919C187.644 65.1871 190.569 64.8298 193.351 65.4839C193.55 65.5488 193.734 65.6523 193.892 65.7883C194.051 65.9243 194.181 66.0902 194.276 66.2765C194.37 66.4629 194.427 66.666 194.443 66.8743C194.459 67.0826 194.434 67.292 194.369 67.4905C194.304 67.6891 194.2 67.8729 194.064 68.0315C193.928 68.1901 193.762 68.3203 193.576 68.4148C193.39 68.5093 193.186 68.5661 192.978 68.5821C192.77 68.5981 192.56 68.5728 192.362 68.5079C190.344 68.0943 188.244 68.398 186.426 69.3665C186.226 69.4555 186.01 69.5062 185.791 69.5159Z" fill="black"/>
<path d="M64.5512 201.321C64.2251 201.322 63.9067 201.221 63.6395 201.034C63.3723 200.847 63.1692 200.582 63.0579 200.276C62.2283 198.189 62.0335 195.903 62.4979 193.705C63.134 192.262 64.2951 191.114 65.7459 190.495C65.9359 190.412 66.1402 190.369 66.3471 190.365C66.5541 190.362 66.7596 190.4 66.952 190.476C67.1444 190.552 67.3199 190.666 67.4685 190.81C67.6171 190.954 67.7358 191.126 67.8179 191.316C67.9 191.506 67.9439 191.71 67.9471 191.917C67.9503 192.124 67.9126 192.33 67.8364 192.522C67.7601 192.714 67.6467 192.89 67.5026 193.038C67.3585 193.187 67.1866 193.306 66.9966 193.388C66.3487 193.686 65.8126 194.183 65.4659 194.807C65.2792 196.294 65.4785 197.805 66.0446 199.193C66.1159 199.389 66.1479 199.598 66.1386 199.806C66.1294 200.014 66.0791 200.219 65.9906 200.408C65.9022 200.597 65.7774 200.767 65.6233 200.907C65.4692 201.048 65.2888 201.157 65.0926 201.228C64.9177 201.286 64.7353 201.317 64.5512 201.321Z" fill="black"/>
<path d="M58.4846 201.676C58.2089 201.675 57.9382 201.602 57.6993 201.465C57.4604 201.327 57.2614 201.13 57.1219 200.892C55.9921 199.002 55.6124 196.757 56.0579 194.601C56.2815 193.73 56.6842 192.915 57.2402 192.208C57.7962 191.501 58.4933 190.917 59.2872 190.495C59.6709 190.321 60.1077 190.308 60.5015 190.456C60.8954 190.605 61.214 190.904 61.3872 191.288C61.5605 191.672 61.5743 192.108 61.4255 192.502C61.2767 192.896 60.9776 193.215 60.5939 193.388C59.8362 193.865 59.2991 194.624 59.1006 195.497C58.9223 196.793 59.1923 198.11 59.8659 199.231C60.0758 199.595 60.1328 200.027 60.0243 200.433C59.9158 200.839 59.6507 201.185 59.2872 201.396C59.0515 201.563 58.7732 201.66 58.4846 201.676Z" fill="black"/>
<path d="M66.1192 188.609H60.8366C60.4158 188.609 60.0122 188.442 59.7146 188.145C59.4171 187.847 59.2499 187.443 59.2499 187.023C59.2499 186.602 59.4171 186.198 59.7146 185.901C60.0122 185.603 60.4158 185.436 60.8366 185.436H66.1192C66.54 185.436 66.9436 185.603 67.2412 185.901C67.5387 186.198 67.7059 186.602 67.7059 187.023C67.7059 187.443 67.5387 187.847 67.2412 188.145C66.9436 188.442 66.54 188.609 66.1192 188.609Z" fill="black"/>
<path d="M86.1672 47.7692C86.1672 47.6199 85.8126 39.9852 87.1006 39.2199C88.3886 38.4545 96.0232 41.4972 97.4792 43.4759C98.8494 45.3736 99.7106 47.5908 99.9806 49.9159C99.7566 50.4945 86.8766 49.8785 86.1672 47.7692Z" fill="#F97FB5"/>
<path d="M64.9432 85.6439C63.3635 86.9447 62.2551 88.7287 61.7886 90.7212C61.3779 93.5772 62.5539 95.1265 61.0232 95.7799C59.4926 96.4332 56.1886 92.3825 57.5139 89.3772C58.8392 86.3719 64.9432 85.6439 64.9432 85.6439Z" fill="#CE7A23"/>
<path d="M55.9832 90.0679C55.9832 90.0679 52.2499 93.4092 51.6712 96.6946C51.0926 99.9799 52.5672 102.5 51.2419 103.396C49.9166 104.292 45.1192 100.148 47.1352 95.9292C49.1512 91.7106 55.9832 90.0679 55.9832 90.0679Z" fill="#CE7A23"/>
<path d="M100.279 52.0252C100.072 52.0277 99.8659 51.989 99.6735 51.9113C99.4811 51.8336 99.306 51.7185 99.1584 51.5726C99.0108 51.4268 98.8937 51.2531 98.8137 51.0616C98.7337 50.8701 98.6926 50.6647 98.6926 50.4572C98.5744 47.9485 97.4829 45.5847 95.6499 43.8679C93.4223 42.0777 90.7521 40.9232 87.9219 40.5265C87.5505 42.9662 87.3819 45.4324 87.4179 47.8999C87.4277 48.1082 87.3964 48.3165 87.3257 48.5128C87.255 48.709 87.1464 48.8894 87.006 49.0437C86.8656 49.198 86.6962 49.3231 86.5074 49.4119C86.3187 49.5007 86.1143 49.5514 85.9059 49.5612C85.6976 49.571 85.4893 49.5397 85.293 49.469C85.0968 49.3983 84.9164 49.2897 84.7621 49.1493C84.6078 49.0089 84.4827 48.8395 84.3939 48.6507C84.3051 48.462 84.2544 48.2576 84.2446 48.0492C84.2446 48.0492 83.9646 38.7159 86.1113 37.6145C87.7726 36.6999 94.0073 38.2305 97.7593 41.4599C99.0049 42.6106 100.011 43.9963 100.719 45.5372C101.427 47.0782 101.823 48.7439 101.885 50.4385C101.885 50.6485 101.843 50.8563 101.762 51.0501C101.681 51.2438 101.563 51.4196 101.413 51.5671C101.264 51.7147 101.087 51.8312 100.892 51.9098C100.698 51.9885 100.489 52.0277 100.279 52.0252Z" fill="black"/>
<path d="M102.277 73.1932C102.277 73.1932 109.258 56.9532 112.525 51.5399C115.791 46.1265 116.258 45.6412 118.218 45.9399C120.178 46.2385 122.847 46.3505 123.202 44.2225C123.557 42.0945 123.314 39.8545 120.85 39.8919C118.386 39.9292 115.661 42.3932 114.261 44.1105C112.861 45.8279 105.935 57.0465 103.247 61.2652C100.559 65.4839 100.765 66.2492 98.8419 67.1265C96.9192 68.0039 43.9246 86.2972 43.9246 86.2972L41.7592 82.2092C41.7592 82.2092 33.5272 89.2279 33.3592 90.0865C33.3061 91.5852 33.6269 93.0735 34.2926 94.4172C34.8079 94.466 35.3266 94.466 35.8419 94.4172L39.7619 101.473C39.7619 101.473 49.8792 89.8999 72.9886 81.8359C96.0979 73.7719 98.6552 79.2225 99.7379 82.6945C100.821 86.1665 97.0312 94.2679 97.0312 94.2679C99.026 93.9483 100.875 93.0258 102.33 91.6242C103.785 90.2227 104.776 88.4093 105.17 86.4279C107.149 79.0919 103.789 74.0145 102.277 73.1932Z" fill="black"/>
<path d="M39.7619 102.407H39.6499C39.5023 102.393 39.3603 102.344 39.2365 102.263C39.1127 102.181 39.011 102.07 38.9406 101.94L35.3006 95.4065C34.9101 95.4553 34.5151 95.4553 34.1246 95.4065C32.6499 95.1079 32.2579 90.5345 32.4446 89.9745C32.6312 89.4145 32.6872 88.7985 41.1432 81.5745C41.252 81.4869 41.3781 81.4233 41.5133 81.3879C41.6484 81.3525 41.7895 81.3462 41.9272 81.3692C42.0662 81.3942 42.1975 81.451 42.3109 81.5352C42.4242 81.6194 42.5165 81.7287 42.5806 81.8545L44.4472 85.2332C62.9646 78.8305 97.0686 67.0145 98.5806 66.3239C99.6446 65.8385 99.8312 65.5025 100.765 63.8599C101.194 63.0945 101.754 62.1239 102.631 60.7985C103.509 59.4732 104.498 57.9425 105.618 56.0572C108.903 50.7932 112.637 44.8572 113.701 43.5505C114.317 42.8039 117.583 39.0519 120.999 38.9959C121.475 38.9651 121.952 39.0414 122.394 39.219C122.837 39.3967 123.234 39.6713 123.557 40.0225C123.989 40.6569 124.279 41.3779 124.405 42.1356C124.53 42.8932 124.489 43.6691 124.285 44.4092C123.762 47.6199 119.618 47.0785 118.255 46.8919C116.893 46.7052 116.725 46.6865 113.477 52.0812C110.434 56.6919 104.834 69.7959 103.415 72.8945C105.282 74.7612 107.933 79.8012 106.066 86.6705C105.633 88.842 104.539 90.8268 102.936 92.3536C101.332 93.8805 99.296 94.875 97.1059 95.2012C96.9437 95.2166 96.7803 95.1884 96.6326 95.1195C96.4849 95.0506 96.3583 94.9435 96.2659 94.8092C96.184 94.6673 96.1409 94.5064 96.1409 94.3425C96.1409 94.1787 96.184 94.0178 96.2659 93.8759C97.2739 91.7105 99.7192 85.5319 98.9166 82.9745C98.7621 82.2201 98.4404 81.5098 97.9753 80.896C97.5101 80.2822 96.9132 79.7806 96.2286 79.4279C92.4952 77.5612 84.8606 78.6812 73.3619 82.7132C50.7006 90.6279 40.5646 101.977 40.4526 102.089C40.3647 102.186 40.2583 102.264 40.1396 102.318C40.0209 102.373 39.8925 102.403 39.7619 102.407ZM35.7672 93.4839C35.9324 93.4848 36.0942 93.5304 36.2355 93.6158C36.3769 93.7013 36.4924 93.8234 36.5699 93.9692L39.8739 99.9052C42.8419 96.9559 53.0899 87.7905 72.5966 80.9585C84.7672 76.6839 92.7192 75.6385 96.8632 77.7665C97.7855 78.224 98.5972 78.8766 99.2419 79.6793C99.8866 80.4819 100.349 81.4153 100.597 82.4146C101.455 85.1959 99.7192 90.1985 98.6179 92.9052C100.029 92.3278 101.278 91.4134 102.254 90.2419C103.23 89.0704 103.904 87.6776 104.218 86.1852C106.085 79.1665 102.799 74.5746 101.773 74.0145C101.568 73.9067 101.412 73.7254 101.336 73.5073C101.26 73.2891 101.269 73.0502 101.362 72.8385C101.642 72.1665 108.399 56.4679 111.666 51.0545C114.933 45.6412 115.642 44.6145 118.274 44.9692C121.559 45.3985 122.119 44.7079 122.213 44.0359C122.496 43.0777 122.396 42.0466 121.933 41.1612C121.784 41.0222 121.607 40.9169 121.413 40.8525C121.22 40.7881 121.015 40.766 120.813 40.7879C118.946 40.7879 116.482 42.6545 114.914 44.6519C113.943 45.8465 109.911 52.2679 106.981 56.9719L103.994 61.7319C103.173 63.0199 102.613 63.9719 102.127 64.7185C101.595 66.1156 100.564 67.266 99.2339 67.9479C97.3672 68.8439 46.3886 86.4279 44.2232 87.1745C44.0159 87.246 43.79 87.2421 43.5851 87.1636C43.3803 87.0851 43.2097 86.937 43.1032 86.7452L41.4792 83.6839C38.9227 85.7789 36.4977 88.0294 34.2179 90.4225C34.3021 91.4759 34.5088 92.5158 34.8339 93.5212C35.1445 93.5477 35.4567 93.5477 35.7672 93.5212V93.4839Z" fill="black"/>
<path d="M89.1912 88.8359C88.9136 88.839 88.6432 88.7468 88.4253 88.5746C88.2074 88.4025 88.0552 88.1608 87.994 87.8899C87.9329 87.619 87.9665 87.3353 88.0892 87.0862C88.212 86.8372 88.4165 86.6377 88.6686 86.5212C90.1868 85.73 91.3526 84.3977 91.9352 82.7879C92.1264 81.9612 92.137 81.103 91.9663 80.2719C91.7955 79.4408 91.4475 78.6562 90.9459 77.9719C90.8149 77.7016 90.7887 77.3924 90.8726 77.1039C90.9564 76.8155 91.1442 76.5684 91.3997 76.4105C91.6552 76.2526 91.9602 76.195 92.2556 76.2489C92.5511 76.3029 92.8161 76.4645 92.9992 76.7026C93.6896 77.6759 94.1606 78.7875 94.3798 79.9606C94.5989 81.1336 94.561 82.3402 94.2686 83.4972C93.47 85.7354 91.8477 87.5846 89.7326 88.6679C89.5699 88.7702 89.3833 88.8281 89.1912 88.8359Z" fill="black"/>
<path d="M76.2926 48.8332C75.3955 49.5733 74.6692 50.4987 74.1633 51.5458C73.6574 52.593 73.3841 53.7372 73.3619 54.8999C73.2227 58.5776 73.3787 62.2605 73.8286 65.9132C72.3349 65.0535 71.0997 63.8081 70.2525 62.3074C69.4052 60.8066 68.977 59.1056 69.0126 57.3826C68.8026 53.7642 69.2906 50.1392 70.4499 46.7052C70.4499 46.7052 65.8206 47.7132 64.5326 55.4599C63.2446 63.2066 66.0632 75.5266 66.0632 75.5266C63.9989 74.6063 62.2085 73.1662 60.8671 71.3471C59.5257 69.528 58.679 67.392 58.4099 65.1479C57.5276 60.2538 57.8479 55.2187 59.3432 50.4759C56.7745 53.4618 55.2248 57.189 54.9192 61.1159C54.5664 65.929 54.792 70.7671 55.5912 75.5266C55.5912 75.5266 51.6712 68.2092 51.3166 64.1399C50.9619 60.0706 50.8499 59.7719 50.8499 59.7719C50.8499 59.7719 44.1672 68.4706 41.8526 68.5452C39.5379 68.6199 33.4899 61.5826 31.7726 57.3452C30.0552 53.1079 28.7672 50.6439 30.8206 48.9452C34.032 46.8766 37.8937 46.0657 41.6659 46.6679C41.6659 46.6679 47.4899 48.3852 49.3192 49.2812C51.1486 50.1772 51.7272 50.4385 51.8392 50.1959C52.3903 48.2455 53.6051 46.5487 55.2739 45.3985C57.8872 43.7932 60.3139 43.0279 60.3512 42.7852C60.3886 42.5425 57.2712 40.7319 57.4206 40.5639C60.5151 38.5884 63.924 37.1554 67.5006 36.3265C71.1975 35.6453 74.9812 35.576 78.7006 36.1212C78.7006 36.3452 77.5992 40.4705 77.2819 42.6359C76.9646 44.8012 76.2926 48.8332 76.2926 48.8332Z" fill="#CE7A23"/>
<path d="M94.7726 91.2625C94.5736 91.259 94.3784 91.2081 94.203 91.1139C94.0277 91.0198 93.8774 90.8851 93.7646 90.7212C93.5868 90.4537 93.5224 90.1267 93.5854 89.8118C93.6484 89.4969 93.8336 89.2198 94.1006 89.0412C94.3432 88.8732 99.2152 85.4759 96.8632 80.3985C96.7294 80.1037 96.717 79.768 96.8288 79.464C96.9406 79.1601 97.1676 78.9124 97.4606 78.7745C97.7527 78.6415 98.0858 78.6296 98.3866 78.7416C98.6875 78.8535 98.9318 79.0802 99.0659 79.3719C99.9754 81.4229 100.116 83.733 99.4608 85.8789C98.806 88.0249 97.4001 89.8632 95.5006 91.0572C95.2854 91.2003 95.0308 91.2721 94.7726 91.2625Z" fill="black"/>
<path d="M44.9139 65.6332C44.9139 65.6332 52.5672 61.8999 51.6152 60.5932C50.6632 59.2866 42.8979 56.3932 40.2846 56.8599C39.8397 56.8814 39.4089 57.0231 39.0382 57.27C38.6674 57.5168 38.3705 57.8595 38.179 58.2617C37.9875 58.6638 37.9085 59.1103 37.9506 59.5538C37.9927 59.9972 38.1542 60.4209 38.4179 60.7799C39.1272 62.4412 44.3166 65.4839 44.9139 65.6332Z" fill="#F97FB5"/>
<path d="M41.9832 84.6359C41.5794 84.6322 41.1918 84.4764 40.8978 84.1996C40.6037 83.9228 40.4247 83.5454 40.3966 83.1426C40.3966 83.1426 40.1539 78.9986 40.0419 74.6306C40.0419 72.1665 40.0419 70.5612 40.0419 69.6466C37.3885 67.9476 35.0565 65.7926 33.1539 63.2812C30.5779 59.4546 25.1832 51.4839 29.6819 47.8626C31.7962 46.2943 34.2571 45.2584 36.8565 44.8425C39.4559 44.4266 42.1172 44.6429 44.6152 45.4732C46.6908 46.1294 48.7232 46.9149 50.7006 47.8252C51.5655 46.258 52.779 44.9105 54.2472 43.8866C54.9517 43.3633 55.6873 42.8833 56.4499 42.4492L56.0019 42.2066C55.7845 42.0808 55.6001 41.9052 55.4638 41.6943C55.3275 41.4834 55.2432 41.2431 55.2179 40.9932C55.1879 40.7435 55.2199 40.4902 55.3111 40.2558C55.4022 40.0214 55.5497 39.8131 55.7406 39.6492C59.4636 36.6078 64.0176 34.7602 68.8073 34.3479C76.2739 33.7132 78.4579 34.3479 78.8312 34.3479C79.2267 34.4845 79.5542 34.7684 79.7455 35.1405C79.9367 35.5126 79.977 35.9441 79.8579 36.3452C79.7943 36.5439 79.6922 36.728 79.5574 36.8872C79.4225 37.0463 79.2576 37.1773 79.0721 37.2727C78.8866 37.3681 78.6841 37.4259 78.4762 37.4429C78.2683 37.4599 78.0591 37.4358 77.8606 37.3719C74.9419 36.9967 71.9872 36.9967 69.0686 37.3719C65.7537 37.6927 62.5587 38.779 59.7352 40.5452L60.8926 41.2172C61.1886 41.3823 61.4232 41.6388 61.5612 41.9485C61.6992 42.2581 61.7331 42.604 61.6579 42.9346C61.5835 43.2642 61.4057 43.5615 61.1506 43.7831C60.8954 44.0047 60.5761 44.1391 60.2393 44.1666C58.7323 44.5795 57.3318 45.3116 56.1326 46.3132C54.7148 47.2285 53.6488 48.5971 53.1086 50.1959C53.053 50.4405 52.9415 50.669 52.7828 50.8633C52.6241 51.0576 52.4225 51.2125 52.1939 51.3159C51.9725 51.4219 51.7301 51.4769 51.4846 51.4769C51.2391 51.4769 50.9967 51.4219 50.7752 51.3159C48.4826 50.1414 46.0901 49.1732 43.6259 48.4226C41.6231 47.7636 39.4926 47.5892 37.4093 47.9137C35.326 48.2382 33.3494 49.0524 31.6419 50.2892C30.6152 51.1106 30.5032 53.7239 35.7486 61.4892C37.6247 63.8589 39.8909 65.8916 42.4499 67.4999C42.6994 67.6471 42.902 67.862 43.0341 68.1197C43.1663 68.3775 43.2226 68.6674 43.1966 68.9559C43.1966 68.9559 43.1032 70.6359 43.1966 74.5559C43.3086 78.8865 43.5512 82.9372 43.5512 82.9746C43.5639 83.183 43.5352 83.3919 43.4669 83.5892C43.3987 83.7866 43.2921 83.9685 43.1534 84.1246C43.0146 84.2807 42.8465 84.4078 42.6585 84.4988C42.4705 84.5897 42.2664 84.6426 42.0579 84.6545L41.9832 84.6359Z" fill="black"/>
<path d="M44.5966 67.1452C44.4415 67.1631 44.2849 67.1631 44.1299 67.1452C40.5459 66.0066 34.7966 62.7959 36.2712 58.0359C36.4198 57.5087 36.6871 57.0226 37.0528 56.6149C37.4184 56.2072 37.8726 55.8887 38.3806 55.6839C42.3379 54.0039 50.7192 58.1852 52.3619 59.0439C52.562 59.131 52.7421 59.2585 52.8907 59.4183C53.0393 59.5782 53.1534 59.767 53.2257 59.9729C53.298 60.1789 53.3271 60.3975 53.3111 60.6152C53.2951 60.8329 53.2343 61.045 53.1326 61.2381C53.0309 61.4312 52.8904 61.6013 52.7199 61.7377C52.5495 61.874 52.3527 61.9738 52.142 62.0306C51.9313 62.0875 51.711 62.1002 51.4951 62.0681C51.2792 62.036 51.0723 61.9596 50.8872 61.8439C47.4712 59.9772 41.5539 57.8119 39.6872 58.6146C39.6154 58.6392 39.5506 58.6809 39.4986 58.7362C39.4465 58.7915 39.4088 58.8587 39.3886 58.9319C38.4739 61.7692 45.1006 64.0279 45.1006 64.0466C45.4617 64.1614 45.7699 64.4018 45.9692 64.7242C46.1685 65.0466 46.2458 65.4296 46.1871 65.8041C46.1285 66.1785 45.9377 66.5196 45.6494 66.7656C45.3611 67.0116 44.9942 67.1463 44.6152 67.1452H44.5966Z" fill="black"/>
<path d="M37.8019 92.8306L43.5886 91.1506L46.5006 94.3239L40.8446 98.4866L37.8019 92.8306Z" fill="white"/>
<path d="M68.8819 80.2866L74.5939 78.1959L75.7886 79.6892L70.0579 81.9852L68.8819 80.2866Z" fill="white"/>
<path d="M54.1539 182.076C54.1539 182.076 54.6392 182.991 60.0712 182.692C65.5032 182.393 67.9859 179.201 67.2392 178.007C66.4926 176.812 64.6072 178.529 60.3886 178.137C56.1699 177.745 50.0846 173.06 50.0846 173.06L54.1539 182.076Z" fill="#CE7A23"/>
<path d="M48.7032 168.113C48.7032 168.113 50.3832 172.127 56.6552 172.873C62.9272 173.62 68.3779 172.22 67.9859 169.383C67.5939 166.545 61.5272 168.841 57.5139 167.516C53.5006 166.191 48.7032 159.732 48.7032 159.732C48.4332 162.519 48.4332 165.326 48.7032 168.113Z" fill="#CE7A23"/>
<path d="M92.3646 97.4786C92.3646 97.4786 96.7886 95.4812 93.3726 90.7212C89.9566 85.9612 82.8632 88.9852 83.7032 92.2146C84.5432 95.4439 88.9859 99.9986 92.3646 97.4786Z" fill="#F97FB5"/>
<path d="M56.1886 201.732C52.9406 201.732 50.9059 201.228 50.7006 198.783C50.4952 196.337 50.1406 192.399 52.3806 189.617C53.1601 188.666 54.0153 187.78 54.9379 186.967C52.3992 183.028 45.1006 170.988 46.5192 160.833C47.5086 153.833 52.6979 147.673 56.8792 142.727C59.6606 139.404 62.2926 136.287 62.3486 134.383C62.3486 131.545 62.6659 124.247 61.6766 122.641C52.5299 125.665 46.4819 123.313 43.0099 120.775C40.8076 119.138 39.0096 117.018 37.7541 114.578C36.4986 112.138 35.8189 109.443 35.7672 106.7C35.8792 96.3212 64.7006 83.7025 70.4686 81.2759C85.2152 75.0785 94.5113 74.2012 98.8793 78.5505C99.8889 79.533 100.685 80.713 101.218 82.017C101.751 83.3209 102.01 84.7208 101.978 86.1292C101.978 90.5159 99.2153 95.2759 94.2313 99.8865C85.8312 107.671 58.0926 118.311 56.8979 118.759C56.5043 118.91 56.0669 118.898 55.6818 118.726C55.2967 118.555 54.9956 118.237 54.8446 117.844C54.6936 117.45 54.7051 117.013 54.8767 116.628C55.0482 116.243 55.3657 115.942 55.7592 115.791C56.0579 115.679 84.1139 104.927 92.0473 97.5532C96.3966 93.5399 98.7112 89.5639 98.7859 86.0732C98.8141 85.0886 98.6341 84.1091 98.2577 83.1988C97.8814 82.2885 97.3172 81.4678 96.6019 80.7905C94.2873 78.4385 88.0339 77.1879 71.6259 84.1132C55.2179 91.0386 38.9219 100.839 38.8659 106.7C38.9244 108.961 39.4959 111.18 40.5371 113.188C41.5784 115.196 43.0622 116.941 44.8766 118.292C49.0206 121.316 54.5646 121.783 60.8739 119.636C61.2983 119.485 61.7532 119.44 62.1989 119.505C62.6447 119.57 63.0677 119.743 63.4312 120.009C65.5406 121.559 65.7832 125.927 65.5219 134.551C65.5219 137.556 62.7219 140.767 59.3059 144.836C55.1806 149.633 50.5326 155.233 49.6739 161.281C48.1619 172.033 58.1672 186.089 58.3539 186.22C58.5976 186.563 58.697 186.988 58.6307 187.403C58.5644 187.818 58.3376 188.191 57.9992 188.441C56.8254 189.363 55.7662 190.422 54.8446 191.596C53.4446 193.351 53.6872 196.561 53.8366 198.391C55.7652 198.616 57.7133 198.616 59.6419 198.391L64.4952 198.204C69.1382 198.305 73.7681 197.675 78.2153 196.337C79.0553 196.039 79.4846 195.908 78.5512 189.841C78.2945 187.353 77.3725 184.98 75.8819 182.972C75.3407 182.198 74.8542 181.387 74.4259 180.545C74.1633 180.004 74.0269 179.411 74.0269 178.809C74.0269 178.208 74.1633 177.614 74.4259 177.073C76.2926 172.743 84.2259 168.076 94.9592 164.921C109.893 160.572 118.797 160.833 119.226 160.852C119.435 160.857 119.641 160.903 119.832 160.989C120.023 161.074 120.195 161.197 120.338 161.351C120.48 161.504 120.591 161.684 120.663 161.88C120.735 162.077 120.767 162.286 120.757 162.495C120.728 162.911 120.543 163.3 120.238 163.584C119.933 163.869 119.531 164.026 119.114 164.025C119.114 164.025 110.266 163.764 95.9113 167.964C83.2366 171.697 78.2899 176.252 77.3566 178.361C77.2138 178.596 77.1608 178.874 77.2072 179.145C77.5757 179.852 77.9936 180.532 78.4579 181.18C80.2115 183.588 81.3054 186.413 81.6312 189.375C82.4339 194.583 82.9566 198.036 79.1859 199.343C74.4337 200.794 69.4821 201.487 64.5139 201.396C62.6472 201.396 61.1352 201.508 59.7352 201.583C58.3352 201.657 57.2712 201.732 56.1886 201.732Z" fill="black"/>
<path d="M163.821 197.737C157.325 197.737 150.754 196.991 149.877 194.321C149.408 192.832 149.255 191.262 149.429 189.711C149.61 188.778 149.582 187.817 149.347 186.897C149.111 185.977 148.673 185.121 148.066 184.391C145.023 180.975 140.133 176.924 127.066 172.593C113.999 168.263 106.085 165.929 106.01 165.911C105.606 165.789 105.265 165.514 105.063 165.143C104.86 164.773 104.811 164.338 104.927 163.932C104.985 163.733 105.082 163.547 105.212 163.385C105.342 163.224 105.503 163.09 105.685 162.991C105.867 162.892 106.067 162.83 106.274 162.809C106.48 162.788 106.689 162.808 106.887 162.868C106.887 162.868 114.671 165.145 128.074 169.569C141.831 174.124 147.095 178.548 150.474 182.263C151.357 183.301 152.007 184.516 152.38 185.827C152.754 187.137 152.842 188.512 152.639 189.86C152.496 190.997 152.579 192.152 152.882 193.257C154.749 195.012 173.415 194.807 176.85 193.687C176.85 193.687 177.13 193.687 177.242 193.071C177.289 191.945 177.102 190.821 176.694 189.771C176.286 188.72 175.666 187.766 174.871 186.967C173.341 185.73 172.012 184.263 170.933 182.617C170.373 181.871 169.663 180.881 168.637 179.537C164.903 174.628 147.954 142.484 142.167 128.857C135.298 112.505 140.431 103.023 142.97 99.7185C145.845 95.9852 158.258 89.8999 172.949 82.9185C176.57 81.2199 179.687 79.7452 181.666 78.7185L183.029 78.0279C190.495 74.2945 194.229 72.3159 189.581 62.8146C185.549 54.6386 176.141 58.0919 163.298 63.8412C161.786 64.5132 160.311 65.1852 158.911 65.7079C148.792 69.6652 138.467 73.0737 127.981 75.9185C127.771 75.9971 127.546 76.0302 127.323 76.0157C127.099 76.0012 126.881 75.9395 126.683 75.8346C126.484 75.7297 126.311 75.584 126.173 75.4071C126.035 75.2302 125.937 75.0261 125.883 74.8083C125.83 74.5905 125.824 74.3639 125.865 74.1434C125.906 73.923 125.993 73.7137 126.12 73.5294C126.248 73.345 126.413 73.1898 126.605 73.0739C126.797 72.9581 127.011 72.8842 127.234 72.8572C137.587 70.0908 147.781 66.7632 157.773 62.8892C159.173 62.3105 160.629 61.6572 162.103 61.0225C173.117 56.0945 186.837 49.9346 192.53 61.4706C198.615 73.7906 191.783 77.2626 184.578 80.9399L183.234 81.6306C181.199 82.6759 178.045 84.1506 174.423 85.8679C164.623 90.4786 148.29 98.2066 145.602 101.679C143.418 104.553 138.975 112.879 145.21 127.663C150.81 141.159 167.61 172.855 171.343 177.671C172.37 179.033 173.098 180.023 173.658 180.788C174.598 182.206 175.757 183.466 177.093 184.521C178.312 185.691 179.251 187.121 179.84 188.705C180.428 190.289 180.65 191.986 180.49 193.668C180.392 194.359 180.102 195.008 179.653 195.543C179.204 196.077 178.615 196.476 177.951 196.692C173.278 197.428 168.552 197.778 163.821 197.737Z" fill="black"/>
<path d="M76.7219 52.2492C76.3075 52.2493 75.9095 52.0873 75.613 51.7978C75.3165 51.5082 75.145 51.1142 75.1352 50.6999C74.9672 43.6626 79.8206 27.5159 80.5672 26.0972C80.9966 25.1639 82.3406 24.4919 84.5432 24.0626C87.5686 23.5067 90.6825 23.6735 93.6312 24.5493C96.5798 25.4252 99.2799 26.9853 101.511 29.1026C109.519 36.7559 110.509 49.6359 110.546 50.2146C110.541 50.6128 110.387 50.9947 110.114 51.2846C109.841 51.5745 109.469 51.751 109.072 51.7792C108.674 51.8074 108.281 51.6852 107.97 51.4369C107.659 51.1885 107.452 50.8321 107.391 50.4386C107.391 50.3079 106.439 38.1932 99.3086 31.3986C97.2323 29.3947 94.6527 27.9898 91.843 27.3326C89.0334 26.6753 86.0982 26.7903 83.3486 27.6652C82.4339 30.1666 78.1592 44.6892 78.3086 50.6999C78.3135 50.9083 78.2774 51.1156 78.2022 51.31C78.127 51.5044 78.0143 51.6821 77.8704 51.8329C77.7265 51.9837 77.5543 52.1047 77.3637 52.1889C77.173 52.2732 76.9676 52.319 76.7592 52.3239L76.7219 52.2492Z" fill="black"/>
</svg>
